<svg width="160" height="192" viewBox="0 0 160 192" fill="none" xmlns="http://www.w3.org/2000/svg">
<path d="M25.3445 148.266C25.3133 148.173 25.407 147.938 25.6258 147.563C25.8445 147.157 26.0789 146.673 26.3289 146.11C26.6101 145.516 26.8758 144.86 27.1258 144.141C27.407 143.391 27.5945 142.626 27.6883 141.845C27.8133 141.063 27.8133 140.282 27.6883 139.501C27.5633 138.72 27.2351 137.97 26.7039 137.251C26.3914 136.876 25.9226 136.673 25.2976 136.641C24.7039 136.579 24.0164 136.673 23.2351 136.923C22.4851 137.141 21.6883 137.501 20.8445 138.001C20.032 138.47 19.282 139.032 18.5945 139.688C17.907 140.313 17.3133 141.016 16.8133 141.798C16.3445 142.579 16.0789 143.376 16.0164 144.188C15.9539 144.845 15.9695 145.454 16.0633 146.016C16.1883 146.579 16.3445 147.095 16.532 147.563C16.7195 148.032 16.9226 148.47 17.1414 148.876C17.3601 149.282 17.5633 149.641 17.7508 149.954C18.0008 150.391 18.3914 150.876 18.9226 151.407C19.4539 151.938 20.032 152.548 20.657 153.235C21.282 153.891 21.907 154.641 22.532 155.485C23.157 156.329 23.7039 157.282 24.1726 158.345C24.6414 159.407 24.9695 160.595 25.157 161.907C25.3445 163.22 25.3289 164.673 25.1101 166.266C24.7664 168.579 24.2195 170.501 23.4695 172.032C22.7195 173.595 21.8914 174.845 20.9851 175.782C20.1101 176.72 19.2195 177.391 18.3133 177.798C17.407 178.235 16.657 178.516 16.0633 178.641C15.5945 178.735 15.032 178.813 14.3758 178.876C13.7508 178.97 13.0789 178.954 12.3601 178.829C11.6726 178.735 10.9695 178.516 10.2508 178.173C9.53201 177.86 8.89139 177.36 8.32889 176.673C7.67264 175.891 7.15701 175.048 6.78201 174.141C6.43826 173.36 6.18826 172.454 6.03201 171.423C5.84451 170.423 5.92264 169.376 6.26639 168.282C6.51639 168.001 6.78201 167.751 7.06326 167.532C7.34451 167.313 7.62576 167.126 7.90701 166.97C8.21951 166.782 8.54764 166.61 8.89139 166.454C9.29764 166.329 9.70389 166.22 10.1101 166.126C10.4539 166.063 10.8133 166.032 11.1883 166.032C11.5945 166.001 11.9695 166.048 12.3133 166.173C11.8445 166.704 11.5164 167.204 11.3289 167.673C11.2039 167.923 11.1101 168.141 11.0476 168.329C10.9226 168.923 10.8758 169.626 10.907 170.438C10.9695 171.282 11.1414 172.079 11.4226 172.829C11.7351 173.61 12.1726 174.266 12.7351 174.798C13.2976 175.36 14.0476 175.657 14.9851 175.688C17.2664 175.751 19.2039 173.97 20.7976 170.345C21.3289 169.22 21.5945 168.079 21.5945 166.923C21.6258 165.766 21.4851 164.657 21.1726 163.595C20.8914 162.532 20.5008 161.548 20.0008 160.641C19.532 159.704 19.0476 158.907 18.5476 158.251C18.0476 157.595 17.4383 156.891 16.7195 156.141C16.032 155.36 15.3445 154.516 14.657 153.61C13.9695 152.704 13.3445 151.72 12.782 150.657C12.2508 149.595 11.8914 148.438 11.7039 147.188C11.4539 145.438 11.6101 143.845 12.1726 142.407C12.7664 140.938 13.5476 139.657 14.5164 138.563C15.5164 137.47 16.5945 136.579 17.7508 135.891C18.9383 135.204 19.9851 134.766 20.8914 134.579C25.9226 133.579 29.2195 134.423 30.782 137.11C31.4383 138.141 31.7976 139.235 31.8601 140.391C31.9226 141.548 31.8445 142.626 31.6258 143.626C31.4383 144.595 31.1883 145.423 30.8758 146.11C30.5945 146.766 30.407 147.126 30.3133 147.188C30.1258 147.376 29.8289 147.579 29.4226 147.798C29.0164 148.016 28.3601 148.22 27.4539 148.407C27.2039 148.47 26.9539 148.501 26.7039 148.501C26.4851 148.501 26.2508 148.485 26.0008 148.454C25.7508 148.423 25.532 148.36 25.3445 148.266ZM54.9695 160.454C54.2508 161.641 53.4226 162.876 52.4851 164.157C51.5789 165.407 50.6101 166.563 49.5789 167.626C48.5476 168.657 47.4851 169.516 46.3914 170.204C45.2976 170.891 44.2039 171.235 43.1101 171.235C42.0164 171.235 41.2195 170.86 40.7195 170.11C40.2508 169.391 40.032 168.579 40.0633 167.673C40.0633 167.266 40.0945 166.907 40.157 166.595C40.2508 166.282 40.3445 166.001 40.4383 165.751C40.532 165.501 40.6258 165.251 40.7195 165.001C40.8445 164.72 40.9539 164.407 41.0476 164.063C41.1726 163.657 41.1726 163.298 41.0476 162.985C40.9539 162.641 40.8289 162.345 40.6726 162.095C40.3914 162.407 40.0633 162.688 39.6883 162.938C39.3445 163.157 38.907 163.266 38.3758 163.266C38.0008 163.266 37.657 163.095 37.3445 162.751C37.032 162.376 36.8758 161.923 36.8758 161.391C36.8758 160.954 36.9695 160.595 37.157 160.313C37.3758 160.032 37.6101 159.813 37.8601 159.657C38.1414 159.501 38.4226 159.391 38.7039 159.329C38.9851 159.266 39.2195 159.235 39.407 159.235C39.5008 159.235 39.6883 159.251 39.9695 159.282C40.282 159.313 40.6101 159.36 40.9539 159.423C42.0789 158.516 42.8758 157.704 43.3445 156.985C43.8445 156.235 43.8914 155.563 43.4851 154.97C43.2351 154.563 42.9226 154.36 42.5476 154.36C42.1726 154.329 41.782 154.423 41.3758 154.641C40.9695 154.829 40.5633 155.079 40.157 155.391C39.782 155.704 39.4383 156.001 39.1258 156.282C38.5008 156.907 37.7976 157.657 37.0164 158.532C36.2664 159.376 35.6414 160.079 35.1414 160.641C34.9226 161.579 34.7039 162.563 34.4851 163.595C34.2976 164.501 34.0789 165.532 33.8289 166.688C33.6101 167.813 33.3758 168.985 33.1258 170.204C32.9383 170.298 32.7351 170.36 32.5164 170.391C32.3289 170.454 32.157 170.501 32.0008 170.532C31.8133 170.563 31.6258 170.579 31.4383 170.579C31.1883 170.579 30.9539 170.563 30.7351 170.532C30.5164 170.532 30.3445 170.454 30.2195 170.298C30.0633 170.173 29.9851 169.954 29.9851 169.641C29.9539 169.329 30.032 168.891 30.2195 168.329C30.4695 167.516 30.782 166.438 31.157 165.095C31.532 163.72 31.9226 162.22 32.3289 160.595C32.7351 158.97 33.1414 157.282 33.5476 155.532C33.9851 153.751 34.3914 152.063 34.7664 150.47C35.1414 148.845 35.4539 147.391 35.7039 146.11C35.9851 144.798 36.1883 143.766 36.3133 143.016C36.407 142.204 36.5008 141.423 36.5945 140.673C36.657 140.048 36.6883 139.438 36.6883 138.845C36.7195 138.22 36.6883 137.751 36.5945 137.438C36.7508 137.282 36.9695 137.141 37.2508 137.016C37.532 136.891 37.8445 136.798 38.1883 136.735C38.532 136.641 38.9383 136.563 39.407 136.501C39.9383 136.438 40.3758 136.423 40.7195 136.454C41.0945 136.485 41.3601 136.641 41.5164 136.923C41.7039 137.235 41.7351 137.766 41.6101 138.516C41.5164 139.235 41.2976 140.251 40.9539 141.563C40.5164 143.251 40.0633 144.798 39.5945 146.204C39.157 147.579 38.7195 148.876 38.282 150.095C37.8758 151.313 37.4695 152.501 37.0633 153.657C36.6883 154.782 36.3445 155.938 36.032 157.126C36.657 156.22 37.4383 155.266 38.3758 154.266C39.3133 153.235 40.3758 152.391 41.5633 151.735C42.8133 151.079 43.8445 150.751 44.657 150.751C45.657 150.751 46.3758 151.095 46.8133 151.782C47.2508 152.438 47.4539 153.22 47.4226 154.126C47.3914 154.845 47.2039 155.516 46.8601 156.141C46.5476 156.735 46.157 157.298 45.6883 157.829C45.2195 158.329 44.7195 158.766 44.1883 159.141C43.657 159.516 43.2039 159.829 42.8289 160.079C43.2664 160.329 43.6414 160.673 43.9539 161.11C44.2976 161.516 44.4539 162.032 44.4226 162.657C44.3914 163.501 44.2195 164.251 43.907 164.907C43.6258 165.532 43.4851 166.11 43.4851 166.641C43.5164 167.048 43.5945 167.345 43.7195 167.532C43.8758 167.72 44.1883 167.813 44.657 167.813C45.5008 167.813 46.3758 167.454 47.282 166.735C48.2195 166.016 49.0945 165.188 49.907 164.251C50.7195 163.313 51.4695 162.391 52.157 161.485C52.8445 160.548 53.3758 159.86 53.7508 159.423C54.282 158.86 54.7195 158.72 55.0633 159.001C55.4383 159.251 55.407 159.735 54.9695 160.454ZM57.8758 170.532C56.6883 170.532 55.7195 170.345 54.9695 169.97C54.2195 169.595 53.6258 169.141 53.1883 168.61C52.782 168.048 52.4851 167.454 52.2976 166.829C52.1414 166.173 52.0633 165.579 52.0633 165.048C52.0633 164.11 52.1414 163.126 52.2976 162.095C52.4539 161.032 52.6414 160.063 52.8601 159.188C53.0789 158.282 53.2664 157.516 53.4226 156.891C53.6101 156.266 53.7351 155.876 53.7976 155.72C54.0789 154.813 54.4383 154.032 54.8758 153.376C55.3445 152.688 55.9851 152.22 56.7976 151.97C57.1101 151.907 57.4383 151.845 57.782 151.782C58.0633 151.751 58.3445 151.735 58.6258 151.735C58.9383 151.735 59.2195 151.782 59.4695 151.876C58.6258 154.032 57.9539 155.829 57.4539 157.266C56.9851 158.704 56.6258 159.876 56.3758 160.782C56.0945 161.813 55.9226 162.641 55.8601 163.266C55.7039 164.673 55.8289 165.735 56.2351 166.454C56.6414 167.173 57.4695 167.532 58.7195 167.532C59.532 167.532 60.3133 167.235 61.0633 166.641C61.8133 166.016 62.5008 165.22 63.1258 164.251C63.032 163.751 62.9851 163.235 62.9851 162.704C62.9851 161.704 63.0633 160.735 63.2195 159.798C63.407 158.829 63.6101 157.938 63.8289 157.126C64.0789 156.282 64.3289 155.532 64.5789 154.876C64.8601 154.22 65.0945 153.704 65.282 153.329C65.6258 152.579 65.9383 152.126 66.2195 151.97C66.5008 151.782 66.9539 151.673 67.5789 151.641C67.8289 151.61 68.032 151.61 68.1883 151.641C68.3758 151.641 68.532 151.657 68.657 151.688C69.032 151.782 69.2195 151.97 69.2195 152.251C69.2195 152.751 69.1883 153.501 69.1258 154.501C69.0633 155.501 68.8758 156.532 68.5633 157.595C68.3445 158.47 68.1258 159.22 67.907 159.845C67.7195 160.438 67.532 160.954 67.3445 161.391C67.157 161.798 66.9695 162.141 66.782 162.423C66.5945 162.673 66.4226 162.907 66.2664 163.126C66.3289 164.063 66.407 164.813 66.5008 165.376C66.5945 165.938 66.7039 166.376 66.8289 166.688C66.9851 166.97 67.157 167.173 67.3445 167.298C67.5633 167.391 67.7976 167.438 68.0476 167.438C68.4851 167.438 69.0008 167.235 69.5945 166.829C70.1883 166.391 70.7976 165.86 71.4226 165.235C72.0789 164.579 72.7195 163.876 73.3445 163.126C74.0008 162.345 74.5945 161.61 75.1258 160.923C75.657 160.235 76.1101 159.641 76.4851 159.141C76.8601 158.61 77.0945 158.282 77.1883 158.157C77.407 157.876 77.6101 157.704 77.7976 157.641C78.0164 157.579 78.1883 157.61 78.3133 157.735C78.4383 157.829 78.5008 158.001 78.5008 158.251C78.532 158.47 78.4695 158.72 78.3133 159.001C77.6883 160.188 76.907 161.454 75.9695 162.798C75.0633 164.11 74.0789 165.329 73.0164 166.454C71.9851 167.579 70.9383 168.516 69.8758 169.266C68.8133 170.016 67.8133 170.391 66.8758 170.391C66.032 170.391 65.3601 170.11 64.8601 169.548C64.3914 168.954 63.9851 168.11 63.6414 167.016C62.9226 168.141 62.0789 169.016 61.1101 169.641C60.1414 170.235 59.0633 170.532 57.8758 170.532ZM73.8601 169.032C75.2351 163.251 76.3289 158.61 77.1414 155.11C77.9851 151.61 78.6258 148.938 79.0633 147.095C79.5633 144.907 79.907 143.391 80.0945 142.548C80.1883 141.954 80.2664 141.376 80.3289 140.813C80.3914 140.313 80.4226 139.798 80.4226 139.266C80.4226 138.735 80.3758 138.251 80.282 137.813C80.532 137.657 80.7976 137.532 81.0789 137.438C81.3914 137.345 81.6883 137.266 81.9695 137.204C82.3133 137.11 82.657 137.032 83.0008 136.97C83.3445 136.907 83.657 136.876 83.9383 136.876C84.1883 136.876 84.4226 136.907 84.6414 136.97C84.8601 137.001 85.0008 137.095 85.0633 137.251C85.2508 137.407 85.3289 137.72 85.2976 138.188C85.2976 138.657 85.2664 139.141 85.2039 139.641C85.0789 140.235 84.9383 140.876 84.782 141.563C84.407 142.907 83.8914 144.845 83.2351 147.376C82.6726 149.532 81.907 152.47 80.9383 156.188C80.0008 159.907 78.8133 164.595 77.3758 170.251C77.2195 170.407 77.032 170.516 76.8133 170.579C76.5945 170.641 76.3914 170.673 76.2039 170.673C75.9851 170.673 75.7508 170.657 75.5008 170.626C75.282 170.563 75.0633 170.47 74.8445 170.345C74.657 170.22 74.4695 170.048 74.282 169.829C74.0945 169.641 73.9539 169.376 73.8601 169.032ZM84.3601 169.032C85.7351 163.251 86.8289 158.61 87.6414 155.11C88.4851 151.61 89.1258 148.938 89.5633 147.095C90.0633 144.907 90.407 143.391 90.5945 142.548C90.6883 141.954 90.7664 141.376 90.8289 140.813C90.8914 140.313 90.9226 139.798 90.9226 139.266C90.9226 138.735 90.8758 138.251 90.782 137.813C91.032 137.657 91.2976 137.532 91.5789 137.438C91.8914 137.345 92.1883 137.266 92.4695 137.204C92.8133 137.11 93.157 137.032 93.5008 136.97C93.8445 136.907 94.157 136.876 94.4383 136.876C94.6883 136.876 94.9226 136.907 95.1414 136.97C95.3601 137.001 95.5008 137.095 95.5633 137.251C95.7508 137.407 95.8289 137.72 95.7976 138.188C95.7976 138.657 95.7664 139.141 95.7039 139.641C95.5789 140.235 95.4383 140.876 95.282 141.563C94.907 142.907 94.3914 144.845 93.7351 147.376C93.1726 149.532 92.407 152.47 91.4383 156.188C90.5008 159.907 89.3133 164.595 87.8758 170.251C87.7195 170.407 87.532 170.516 87.3133 170.579C87.0945 170.641 86.8914 170.673 86.7039 170.673C86.4851 170.673 86.2508 170.657 86.0008 170.626C85.782 170.563 85.5633 170.47 85.3445 170.345C85.157 170.22 84.9695 170.048 84.782 169.829C84.5945 169.641 84.4539 169.376 84.3601 169.032ZM116.798 160.032C115.86 161.407 114.798 162.751 113.61 164.063C112.423 165.345 111.157 166.501 109.813 167.532C108.501 168.532 107.141 169.345 105.735 169.97C104.36 170.595 103.016 170.907 101.704 170.907C101.016 170.907 100.266 170.735 99.4539 170.391C98.6726 170.079 97.9539 169.579 97.2976 168.891C96.6414 168.204 96.1101 167.313 95.7039 166.22C95.3289 165.126 95.2195 163.798 95.3758 162.235C95.5008 160.954 95.8914 159.61 96.5476 158.204C97.2351 156.766 98.0633 155.454 99.032 154.266C100.032 153.079 101.141 152.095 102.36 151.313C103.61 150.532 104.86 150.141 106.11 150.141C107.298 150.141 108.157 150.438 108.688 151.032C109.22 151.626 109.454 152.36 109.391 153.235C109.298 154.204 109.016 155.095 108.548 155.907C108.11 156.72 107.579 157.454 106.954 158.11C106.329 158.766 105.657 159.36 104.938 159.891C104.251 160.423 103.595 160.907 102.97 161.345C102.282 161.813 101.626 162.266 101.001 162.704C100.376 163.11 99.8289 163.485 99.3601 163.829C99.3914 164.61 99.532 165.266 99.782 165.798C100.032 166.329 100.345 166.766 100.72 167.11C101.095 167.423 101.516 167.657 101.985 167.813C102.485 167.938 102.985 168.001 103.485 168.001C104.548 168.001 105.657 167.673 106.813 167.016C107.97 166.329 109.095 165.516 110.188 164.579C111.313 163.61 112.345 162.61 113.282 161.579C114.251 160.548 115.048 159.657 115.673 158.907C115.891 158.657 116.11 158.516 116.329 158.485C116.579 158.423 116.766 158.454 116.891 158.579C117.048 158.673 117.126 158.86 117.126 159.141C117.126 159.391 117.016 159.688 116.798 160.032ZM104.798 152.813C104.423 152.813 103.97 153.001 103.438 153.376C102.938 153.751 102.438 154.298 101.938 155.016C101.438 155.704 100.97 156.563 100.532 157.595C100.095 158.595 99.7664 159.751 99.5476 161.063C99.9226 160.782 100.329 160.501 100.766 160.22C101.204 159.907 101.641 159.579 102.079 159.235C103.423 158.204 104.36 157.298 104.891 156.516C105.423 155.735 105.72 155.063 105.782 154.501C105.845 153.907 105.782 153.485 105.595 153.235C105.407 152.954 105.141 152.813 104.798 152.813ZM111.641 169.548C111.423 169.891 111.188 170.11 110.938 170.204C110.657 170.329 110.423 170.345 110.235 170.251C110.016 170.188 109.876 170.032 109.813 169.782C109.751 169.532 109.813 169.22 110.001 168.845C110.095 168.657 110.313 168.235 110.657 167.579C110.97 166.923 111.36 166.141 111.829 165.235C112.266 164.298 112.751 163.298 113.282 162.235C113.813 161.141 114.313 160.11 114.782 159.141C115.282 158.173 115.735 157.313 116.141 156.563C116.548 155.782 116.845 155.22 117.032 154.876C116.688 154.563 116.454 154.345 116.329 154.22C116.204 154.063 116.11 153.751 116.048 153.282C115.985 152.876 116.079 152.345 116.329 151.688C116.579 151.032 116.907 150.407 117.313 149.813C117.72 149.188 118.173 148.657 118.673 148.22C119.173 147.782 119.657 147.563 120.126 147.563C121.001 147.563 121.61 147.845 121.954 148.407C122.329 148.97 122.548 149.548 122.61 150.141C122.673 150.548 122.641 151.063 122.516 151.688C122.391 152.313 122.157 152.876 121.813 153.376C121.907 153.438 122.032 153.516 122.188 153.61C122.345 153.673 122.595 153.704 122.938 153.704C123.438 153.704 123.782 153.673 123.97 153.61C124.188 153.548 124.516 153.516 124.954 153.516C125.485 153.516 125.923 153.657 126.266 153.938C126.61 154.188 126.891 154.516 127.11 154.923C127.329 155.298 127.485 155.72 127.579 156.188C127.704 156.626 127.782 157.032 127.813 157.407C127.907 158.188 127.704 159.001 127.204 159.845C126.704 160.688 126.095 161.61 125.376 162.61C124.938 163.235 124.501 163.938 124.063 164.72C123.626 165.501 123.438 166.204 123.501 166.829C123.563 167.235 123.673 167.563 123.829 167.813C123.985 168.063 124.423 168.188 125.141 168.188C125.673 168.188 126.251 168.001 126.876 167.626C127.532 167.22 128.188 166.72 128.845 166.126C129.532 165.501 130.204 164.829 130.86 164.11C131.516 163.36 132.126 162.641 132.688 161.954C133.251 161.235 133.72 160.595 134.095 160.032C134.501 159.47 134.798 159.063 134.985 158.813C135.141 158.563 135.345 158.391 135.595 158.298C135.845 158.204 136.063 158.204 136.251 158.298C136.438 158.391 136.548 158.579 136.579 158.86C136.641 159.141 136.532 159.516 136.251 159.985C136.063 160.298 135.735 160.798 135.266 161.485C134.829 162.173 134.282 162.938 133.626 163.782C133.001 164.626 132.298 165.501 131.516 166.407C130.735 167.282 129.907 168.095 129.032 168.845C128.188 169.563 127.329 170.157 126.454 170.626C125.61 171.095 124.798 171.329 124.016 171.329C123.204 171.329 122.532 171.173 122.001 170.86C121.47 170.548 121.032 170.173 120.688 169.735C120.376 169.266 120.141 168.766 119.985 168.235C119.86 167.673 119.813 167.157 119.845 166.688C119.876 166.313 119.97 165.923 120.126 165.516C120.313 165.079 120.516 164.641 120.735 164.204C120.985 163.735 121.235 163.282 121.485 162.845C121.766 162.376 122.016 161.923 122.235 161.485C122.766 160.579 123.188 159.813 123.501 159.188C123.845 158.532 124.016 157.985 124.016 157.548C124.016 157.266 123.954 157.016 123.829 156.798C123.704 156.579 123.501 156.47 123.22 156.47C123.032 156.47 122.891 156.485 122.798 156.516C122.735 156.516 122.657 156.516 122.563 156.516C122.501 156.516 122.391 156.532 122.235 156.563C122.11 156.563 121.907 156.563 121.626 156.563C121.22 156.563 120.876 156.501 120.595 156.376C120.313 156.251 120.048 156.157 119.798 156.095C119.673 156.313 119.391 156.782 118.954 157.501C118.516 158.22 118.001 159.063 117.407 160.032C116.845 161.001 116.235 162.016 115.579 163.079C114.954 164.141 114.36 165.141 113.798 166.079C113.235 166.985 112.766 167.766 112.391 168.423C111.985 169.048 111.735 169.423 111.641 169.548ZM145.251 152.532C145.657 152.22 146.048 151.985 146.423 151.829C146.829 151.641 147.188 151.516 147.501 151.454C147.845 151.36 148.188 151.329 148.532 151.36C149.376 151.423 149.891 151.688 150.079 152.157C150.298 152.626 150.329 153.376 150.173 154.407C150.079 154.938 149.891 155.61 149.61 156.423C149.329 157.235 149.001 158.235 148.626 159.423C148.251 160.579 147.845 161.907 147.407 163.407C147.001 164.907 146.61 166.595 146.235 168.47C145.86 170.001 145.454 171.766 145.016 173.766C144.641 175.516 144.188 177.626 143.657 180.095C143.157 182.563 142.61 185.391 142.016 188.579C141.86 189.36 141.516 189.813 140.985 189.938C140.485 190.063 139.954 190.001 139.391 189.751C139.173 189.626 138.97 189.485 138.782 189.329C138.626 189.173 138.454 188.985 138.266 188.766C138.079 188.579 137.923 188.313 137.798 187.97C138.516 185.345 139.141 182.954 139.673 180.798C140.235 178.641 140.735 176.766 141.173 175.173C141.641 173.329 142.079 171.673 142.485 170.204C142.641 169.548 142.782 168.907 142.907 168.282C143.063 167.626 143.22 166.985 143.376 166.36C142.97 167.016 142.532 167.641 142.063 168.235C141.595 168.829 141.079 169.345 140.516 169.782C139.954 170.22 139.345 170.548 138.688 170.766C138.063 171.016 137.407 171.095 136.72 171.001C135.032 170.782 133.829 170.157 133.11 169.126C132.423 168.095 132.126 166.751 132.22 165.095C132.251 164.438 132.345 163.72 132.501 162.938C132.657 162.157 132.829 161.407 133.016 160.688C133.204 159.97 133.376 159.329 133.532 158.766C133.72 158.173 133.86 157.751 133.954 157.501C134.329 156.313 134.595 155.298 134.751 154.454C134.938 153.61 134.813 152.907 134.376 152.345C134.813 152.063 135.22 151.876 135.595 151.782C136.001 151.657 136.36 151.563 136.673 151.501C137.016 151.47 137.36 151.47 137.704 151.501C138.548 151.626 139.032 151.938 139.157 152.438C139.313 152.938 139.266 153.688 139.016 154.688C138.891 155.22 138.688 155.907 138.407 156.751C138.126 157.563 137.829 158.407 137.516 159.282C137.204 160.157 136.923 160.97 136.673 161.72C136.423 162.438 136.282 162.954 136.251 163.266C135.97 164.673 135.954 165.766 136.204 166.548C136.454 167.298 137.001 167.673 137.845 167.673C138.251 167.673 138.704 167.501 139.204 167.157C139.704 166.782 140.204 166.298 140.704 165.704C141.235 165.11 141.751 164.438 142.251 163.688C142.751 162.907 143.204 162.126 143.61 161.345C144.048 160.563 144.423 159.798 144.735 159.048C145.079 158.298 145.329 157.626 145.485 157.032C145.704 155.876 145.845 154.97 145.907 154.313C145.97 153.657 145.751 153.063 145.251 152.532Z" fill="#343434"/>
<path fill-rule="evenodd" clip-rule="evenodd" d="M79.782 124.592C108.501 124.592 131.782 101.31 131.782 72.5915C131.782 43.8727 108.501 20.5915 79.782 20.5915C67.1596 20.5915 55.5876 25.0889 46.5809 32.5687C50.7785 36.6429 50.7989 45.8487 46.2874 54.572C41.6531 63.5325 33.8398 68.8849 28.0353 67.4264C27.8678 69.1254 27.782 70.8485 27.782 72.5915C27.782 101.31 51.0632 124.592 79.782 124.592Z" fill="#E0E0E0"/>
<rect x="46.782" y="93.782" width="66" height="31" fill="#E0E0E0"/>
<path d="M77.639 98.282C78.7937 96.282 81.6804 96.282 82.8351 98.282L86.6933 104.965C87.848 106.965 86.4046 109.465 84.0952 109.465H76.3789C74.0695 109.465 72.6261 106.965 73.7808 104.965L77.639 98.282Z" fill="#343434"/>
<circle cx="62.5122" cy="83.5122" r="10.7302" fill="#343434"/>
<circle cx="97.5122" cy="83.5122" r="10.7302" fill="#343434"/>
<path d="M77.6447 34.7062C98.554 34.8756 121.803 18.0051 125.242 0.974179C105.433 0.813764 77.8006 15.4476 77.6447 34.7062Z" fill="#343434"/>
<path d="M78.1503 34.7065C78.0252 25.4608 70.3443 15.3439 62.782 13.9861C62.9005 22.7452 69.6345 34.8218 78.1503 34.7065Z" fill="#343434"/>
</svg>
